<?xml version="1.0" encoding="utf-8"?>
<!-- Generator: Adobe Illustrator 27.0.0, SVG Export Plug-In . SVG Version: 6.00 Build 0)  -->
<svg version="1.1" id="Layer_1" xmlns="http://www.w3.org/2000/svg" xmlns:xlink="http://www.w3.org/1999/xlink" x="0px" y="0px"
	 viewBox="0 0 285 52" style="enable-background:new 0 0 285 52;" xml:space="preserve">
<style type="text/css">
	.st0{fill:#FFFFFF;}
	.st1{fill:#003E7E;}
	.st2{fill:none;}
	.st3{fill:#FFFFFF;stroke:#003E7E;stroke-width:0.5;stroke-miterlimit:10;}
	.st4{fill:url(#SVGID_1_);}
	.st5{fill:url(#SVGID_00000032629374711004067030000015534052920533976457_);}
	.st6{fill:url(#SVGID_00000149367062985276635530000002428534444013092019_);}
	.st7{fill:url(#SVGID_00000160906045602691003420000015209803161382355635_);}
	.st8{fill:url(#SVGID_00000104666629672735245700000004458835171710751365_);}
	.st9{fill:url(#SVGID_00000005238824293356364350000013063262991559188378_);}
	.st10{fill:url(#SVGID_00000022534167212120903600000002897169177229909162_);}
	.st11{fill:url(#SVGID_00000116956611526922226950000016084048407820492972_);}
	.st12{fill:url(#SVGID_00000137822705273642477070000012246886677642985874_);}
	.st13{fill:url(#SVGID_00000039845733760134124940000007575686613558812348_);}
	.st14{fill:url(#SVGID_00000096766092146181490840000000579988566136409001_);}
	.st15{fill:url(#SVGID_00000093867010317729687310000016651388965362350244_);}
	.st16{fill:url(#SVGID_00000154404027619937296820000016325654253549016744_);}
	.st17{fill:url(#SVGID_00000090284279231327666220000009109294286872295052_);}
	.st18{fill:url(#SVGID_00000077317122230912032490000011232056100364234627_);}
	.st19{fill:url(#SVGID_00000147204865380050617890000003859387146616477856_);}
	.st20{fill:url(#SVGID_00000108991262000477778680000004500718390897623939_);}
	.st21{fill:url(#SVGID_00000047032503635090701800000009959128634788110214_);}
	.st22{fill:url(#SVGID_00000007408552855944132570000012682345485592820116_);}
	.st23{fill:url(#SVGID_00000044148377130235560720000003136812266407859599_);}
	.st24{fill:url(#SVGID_00000075164388158480317980000005568560672930671770_);}
	.st25{fill:url(#SVGID_00000082343806059119697260000009946673331444740493_);}
	.st26{fill:url(#SVGID_00000003074739249259475200000001011751220482877343_);}
	.st27{fill:url(#SVGID_00000176012010958732649260000000212179780551533226_);}
	.st28{fill:url(#SVGID_00000097487639600187131540000004763315079226960537_);}
	.st29{fill:url(#SVGID_00000097487033881336769040000018297941653285599884_);}
	.st30{fill:url(#SVGID_00000169542190974873295980000014450887319096412823_);}
	.st31{fill:url(#SVGID_00000152247051316810100470000013538654220018243968_);}
	.st32{fill:url(#SVGID_00000003088268005282420740000010283149470938095026_);}
	.st33{fill:url(#SVGID_00000066514118583955967170000003330355514098795454_);}
	.st34{fill:url(#SVGID_00000125576069171891888580000010693939324254690714_);}
	.st35{fill:url(#SVGID_00000034777201537600290980000001366213083907738531_);}
	.st36{fill:url(#SVGID_00000120546051774787366720000013743216440695299232_);}
	.st37{fill:url(#SVGID_00000035525500134865503710000003925538329644978062_);}
	.st38{fill:url(#SVGID_00000014626732745704481800000000176708765484122020_);}
	.st39{fill:url(#SVGID_00000039106038537942373570000007701506649605288085_);}
	.st40{fill:url(#SVGID_00000030446225541446802500000010074295140620523693_);}
	.st41{fill:url(#SVGID_00000179616658148161814020000015228183346408116150_);}
	.st42{fill:url(#SVGID_00000132060864431552748750000001097921800573609128_);}
	.st43{fill:url(#SVGID_00000176741389891589897270000018107615051425544835_);}
	.st44{fill:url(#SVGID_00000134966270647899634160000015650114221641752718_);}
	.st45{fill:url(#SVGID_00000050642978317125476210000004063698178985982605_);}
	.st46{fill:url(#SVGID_00000171689550368496159960000006102125840449928601_);}
	.st47{fill:url(#SVGID_00000083081054108299189710000005897139016526043522_);}
	.st48{fill:url(#SVGID_00000171705912492092038950000005662669121506637981_);}
	.st49{fill:url(#SVGID_00000108989057772569295490000002588574080723391933_);}
	.st50{fill:url(#SVGID_00000093174481859020159600000014473033024728107402_);}
	.st51{fill:url(#SVGID_00000029736978486750618570000012958658094164001950_);}
	.st52{fill:url(#SVGID_00000119101229584197140330000001784821214279190420_);}
	.st53{fill:url(#SVGID_00000006695880306776543280000008808773412396998295_);}
	.st54{fill:url(#SVGID_00000090276265483493778310000009775160005030421924_);}
	.st55{fill:url(#SVGID_00000071524002066400186990000005653888396679544450_);}
	.st56{fill:url(#SVGID_00000021821654717324372620000015813690843195825556_);}
</style>
<g>
	<g>
		<path class="st0" d="M44.98,51.43H5.85C2.62,51.43,0,48.81,0,45.58V6.45C0,3.22,2.62,0.6,5.85,0.6h39.13
			c3.23,0,5.85,2.62,5.85,5.85v39.13C50.84,48.81,48.21,51.43,44.98,51.43z"/>
		<g>
			<path class="st1" d="M44.05,2.22l-37.27,0c-2.85,0-5.16,2.31-5.16,5.16l0,37.27c0,1.56,0.69,2.95,1.78,3.9L46.22,2.7
				C45.56,2.39,44.83,2.22,44.05,2.22z"/>
			<path class="st0" d="M46.22,2.7L3.4,48.55c0.91,0.79,2.09,1.27,3.38,1.27l4.63,0L46.45,2.81C46.38,2.77,46.3,2.73,46.22,2.7z"/>
			<path class="st1" d="M46.45,2.81L11.42,49.82l32.64,0c2.85,0,5.16-2.31,5.16-5.16l0-37.27C49.22,5.39,48.1,3.67,46.45,2.81z"/>
		</g>
	</g>
	<path class="st2" d="M44.98,51.4H5.85C2.62,51.4,0,48.78,0,45.55V6.42c0-3.23,2.62-5.85,5.85-5.85h39.13
		c3.23,0,5.85,2.62,5.85,5.85v39.13C50.84,48.78,48.21,51.4,44.98,51.4z"/>
	<g>
		<path class="st1" d="M60.18,28.97v-0.96c0-7.49,1.86-9.35,10.02-9.35c4.68,0,7.01,1.38,8.26,3.36c0-3.36-0.03-6.66-0.06-8.04h7.62
			c-0.03,1.28-0.03,2.95-0.03,5.09v13.8c0,2.4,0,3.49,0.03,5.06h-7.27l-0.06-3.33c-1.15,2.18-3.39,3.71-8.36,3.71
			C62.16,38.32,60.18,36.46,60.18,28.97z M78.5,28.62v-0.26c0-2.79-0.8-3.39-5.28-3.39c-4.61,0-5.48,0.54-5.48,3.52v0.03
			c0,2.66,0.86,3.17,5.6,3.17C77.69,31.69,78.5,31.08,78.5,28.62z"/>
		<path class="st1" d="M90.89,27.56h-3.39l0.13-6.12h3.23c0-0.22,0-0.45,0-0.67c0-4.77,1.34-6.21,7.72-6.69
			c2.02-0.16,3.39-0.22,5.06-0.29l0.26,5.19c-0.61,0-1.89,0.03-3.36,0.16c-1.92,0.16-2.15,0.51-2.15,2.31h5.19v6.12h-5.19v5.22
			c0,2.24,0,3.46,0.03,5.16h-7.56c0.03-2.53,0.03-6.4,0.03-8.97C90.89,28.52,90.89,28.04,90.89,27.56z"/>
		<path class="st1" d="M104.56,28.97v-0.96c0-7.24,2.43-9.35,12.81-9.35c10.37,0,12.81,1.89,12.81,8.55l-7.43,0.1v0.03
			c0-1.7-0.67-2.37-5.35-2.37c-4.68,0-5.28,0.7-5.28,3.49v0.03c0,2.79,0.61,3.52,5.28,3.52c4.67,0,5.41-0.7,5.41-2.37l7.43,0.13
			c0,6.34-2.5,8.55-12.87,8.55C106.99,38.32,104.56,36.21,104.56,28.97z"/>
		<path class="st1" d="M132.51,24.04c0-1.67,0-3.17-0.03-5h7.56c-0.03,1.76-0.03,2.79-0.03,5v3.71c0,3.27,0.61,3.94,4.9,3.94
			c4.19,0,4.96-0.7,4.96-4.19v-3.33c0-1.95,0-3.43-0.03-5.12h7.56c-0.03,1.6-0.03,3.11-0.03,5.16v9.38c0,1.67,0,3.01,0.03,4.35
			h-7.27l-0.06-3.52c-1.31,2.43-3.71,3.91-9.22,3.91c-7.01,0-8.36-2.05-8.36-6.31c0-1.83,0.03-3.04,0.03-5.92V24.04z"/>
	</g>
</g>
<line class="st3" x1="176.2" y1="0" x2="176.2" y2="52"/>
<g>
	<path class="st1" d="M248.88,42.09c-0.96,0.19-1.59,0.18-2.44-0.04c-0.84-0.2-1.4-0.58-1.78-0.97c-0.48,0.05-0.98,0.08-1.47,0.08
		c-7.88,0-14.29-6.41-14.29-14.29s6.41-14.29,14.29-14.29c7.88,0,14.29,6.41,14.29,14.29c0,3.01-0.94,5.8-2.53,8.11
		c0.58-0.48,1.11-0.94,1.51-1.31c1.43-1.32,4.42-4.39,5.25-5.39c0.1-0.13,0.2-0.25,0.3-0.36c0.02-0.35,0.03-0.69,0.03-1.04
		c0-10.4-8.43-18.84-18.84-18.84c-10.4,0-18.84,8.43-18.84,18.84c0,10.4,8.43,18.84,18.84,18.84c2.98,0,5.79-0.69,8.3-1.92
		c0.6-1.25,1.27-2.48,2.13-3.91C251.82,41.06,250.24,41.8,248.88,42.09z"/>
	<path class="st1" d="M208.43,16.38c-0.12,0-0.81,0.04-2.05,0.12l10.27-15.19h-6.6L196.04,22.3c-1.74,2.41-2.61,5.31-2.61,8.72
		c0,4.32,1.39,7.84,4.17,10.58c2.78,2.74,6.39,4.11,10.83,4.11c4.36,0,7.95-1.37,10.77-4.11c2.82-2.74,4.23-6.27,4.23-10.58
		c0-4.32-1.41-7.82-4.23-10.52C216.38,17.75,212.79,16.38,208.43,16.38z M215.12,37.65c-1.72,1.68-3.95,2.52-6.69,2.52
		c-2.74,0-4.97-0.84-6.69-2.52c-1.72-1.68-2.58-3.89-2.58-6.63c0-2.74,0.85-4.94,2.55-6.6c1.7-1.66,3.94-2.49,6.72-2.49
		c2.74,0,4.97,0.83,6.69,2.49c1.72,1.66,2.58,3.86,2.58,6.6C217.71,33.75,216.85,35.96,215.12,37.65z"/>
	<g>
		<g>
			<g>
				<radialGradient id="SVGID_1_" cx="243.3151" cy="26.819" r="12.7981" gradientUnits="userSpaceOnUse">
					<stop  offset="0" style="stop-color:#FFFFFF;stop-opacity:0"/>
					<stop  offset="0.2365" style="stop-color:#84D3F5;stop-opacity:0.5866"/>
					<stop  offset="0.6992" style="stop-color:#29ABE2"/>
				</radialGradient>
				<path class="st4" d="M242.94,24.04l-1.27-5.08c-0.04-0.17,0-0.34,0.1-0.48c0.1-0.14,0.24-0.23,0.42-0.25l0.01,0
					c0.18-0.02,0.34,0.02,0.47,0.14c0.14,0.11,0.22,0.26,0.22,0.44L242.94,24.04L242.94,24.04z"/>
				
					<radialGradient id="SVGID_00000052090764734883639580000000594435111377517224_" cx="243.3151" cy="26.819" r="12.7981" gradientUnits="userSpaceOnUse">
					<stop  offset="0" style="stop-color:#FFFFFF;stop-opacity:0"/>
					<stop  offset="0.2365" style="stop-color:#84D3F5;stop-opacity:0.5866"/>
					<stop  offset="0.6992" style="stop-color:#29ABE2"/>
				</radialGradient>
				<path style="fill:url(#SVGID_00000052090764734883639580000000594435111377517224_);" d="M241.64,34.72l1.3-5.05l0,0l-0.08,5.22
					c0,0.18-0.08,0.33-0.22,0.44c-0.14,0.11-0.3,0.16-0.47,0.14l-0.01,0c-0.18-0.02-0.32-0.11-0.42-0.25
					C241.63,35.06,241.59,34.9,241.64,34.72L241.64,34.72z"/>
				
					<radialGradient id="SVGID_00000071530084010334528320000009332542442753286026_" cx="243.3151" cy="26.819" r="12.7981" gradientUnits="userSpaceOnUse">
					<stop  offset="0" style="stop-color:#FFFFFF;stop-opacity:0"/>
					<stop  offset="0.2365" style="stop-color:#84D3F5;stop-opacity:0.5866"/>
					<stop  offset="0.6992" style="stop-color:#29ABE2"/>
				</radialGradient>
				<path style="fill:url(#SVGID_00000071530084010334528320000009332542442753286026_);" d="M243.67,24.04l0.09-5.24
					c0-0.18,0.08-0.32,0.22-0.44c0.14-0.11,0.3-0.16,0.47-0.14l0.01,0c0.18,0.02,0.32,0.11,0.42,0.25c0.1,0.15,0.14,0.31,0.1,0.48
					L243.67,24.04L243.67,24.04L243.67,24.04z"/>
				
					<radialGradient id="SVGID_00000176000967959655170790000011621848923803675832_" cx="243.3151" cy="26.819" r="12.7981" gradientUnits="userSpaceOnUse">
					<stop  offset="0" style="stop-color:#FFFFFF;stop-opacity:0"/>
					<stop  offset="0.2365" style="stop-color:#84D3F5;stop-opacity:0.5866"/>
					<stop  offset="0.6992" style="stop-color:#29ABE2"/>
				</radialGradient>
				<path style="fill:url(#SVGID_00000176000967959655170790000011621848923803675832_);" d="M239.65,34.02l2.56-4.54l0,0
					l-1.43,5.02c-0.05,0.17-0.17,0.29-0.33,0.37c-0.16,0.07-0.33,0.08-0.49,0.01l-0.01,0c-0.16-0.07-0.28-0.19-0.34-0.36
					C239.56,34.35,239.57,34.18,239.65,34.02L239.65,34.02z"/>
				
					<radialGradient id="SVGID_00000133514770008989636830000014622049350000094375_" cx="243.3151" cy="26.819" r="12.7981" gradientUnits="userSpaceOnUse">
					<stop  offset="0" style="stop-color:#FFFFFF;stop-opacity:0"/>
					<stop  offset="0.2365" style="stop-color:#84D3F5;stop-opacity:0.5866"/>
					<stop  offset="0.6992" style="stop-color:#29ABE2"/>
				</radialGradient>
				<path style="fill:url(#SVGID_00000133514770008989636830000014622049350000094375_);" d="M244.39,24.23l1.44-5.04
					c0.05-0.17,0.17-0.29,0.33-0.37c0.16-0.07,0.33-0.08,0.49-0.01l0.01,0c0.16,0.07,0.28,0.19,0.34,0.35
					c0.06,0.17,0.06,0.34-0.03,0.49L244.39,24.23L244.39,24.23L244.39,24.23z"/>
				
					<radialGradient id="SVGID_00000001660927900403818780000010811105842985020341_" cx="243.3151" cy="26.819" r="12.7981" gradientUnits="userSpaceOnUse">
					<stop  offset="0" style="stop-color:#FFFFFF;stop-opacity:0"/>
					<stop  offset="0.2365" style="stop-color:#84D3F5;stop-opacity:0.5866"/>
					<stop  offset="0.6992" style="stop-color:#29ABE2"/>
				</radialGradient>
				<path style="fill:url(#SVGID_00000001660927900403818780000010811105842985020341_);" d="M237.92,32.83l3.65-3.72l0,0
					l-2.68,4.48c-0.09,0.15-0.24,0.24-0.41,0.27c-0.17,0.03-0.34-0.01-0.48-0.12L238,33.73c-0.14-0.11-0.22-0.25-0.24-0.43
					C237.75,33.12,237.8,32.96,237.92,32.83L237.92,32.83z"/>
				
					<radialGradient id="SVGID_00000049221536463977067930000016773219538836889268_" cx="243.3151" cy="26.819" r="12.7981" gradientUnits="userSpaceOnUse">
					<stop  offset="0" style="stop-color:#FFFFFF;stop-opacity:0"/>
					<stop  offset="0.2365" style="stop-color:#84D3F5;stop-opacity:0.5866"/>
					<stop  offset="0.6992" style="stop-color:#29ABE2"/>
				</radialGradient>
				<path style="fill:url(#SVGID_00000049221536463977067930000016773219538836889268_);" d="M245.03,24.6l2.69-4.49
					c0.09-0.15,0.24-0.24,0.41-0.27c0.17-0.03,0.34,0.01,0.48,0.12l0.01,0.01c0.14,0.11,0.22,0.25,0.24,0.43
					c0.02,0.18-0.03,0.34-0.16,0.47L245.03,24.6L245.03,24.6L245.03,24.6z"/>
				
					<radialGradient id="SVGID_00000040562153427313942570000016955710733088408242_" cx="243.3151" cy="26.819" r="12.7981" gradientUnits="userSpaceOnUse">
					<stop  offset="0" style="stop-color:#FFFFFF;stop-opacity:0"/>
					<stop  offset="0.2365" style="stop-color:#84D3F5;stop-opacity:0.5866"/>
					<stop  offset="0.6992" style="stop-color:#29ABE2"/>
				</radialGradient>
				<path style="fill:url(#SVGID_00000040562153427313942570000016955710733088408242_);" d="M236.55,31.23l4.49-2.65l0,0
					l-3.75,3.63c-0.13,0.12-0.29,0.17-0.47,0.15c-0.18-0.02-0.32-0.1-0.43-0.24l-0.01-0.01c-0.11-0.14-0.15-0.3-0.12-0.48
					C236.31,31.47,236.4,31.32,236.55,31.23L236.55,31.23z"/>
				
					<radialGradient id="SVGID_00000027595142762756308620000017347501695525583492_" cx="243.3151" cy="26.819" r="12.7981" gradientUnits="userSpaceOnUse">
					<stop  offset="0" style="stop-color:#FFFFFF;stop-opacity:0"/>
					<stop  offset="0.2365" style="stop-color:#84D3F5;stop-opacity:0.5866"/>
					<stop  offset="0.6992" style="stop-color:#29ABE2"/>
				</radialGradient>
				<path style="fill:url(#SVGID_00000027595142762756308620000017347501695525583492_);" d="M245.55,25.12l3.76-3.64
					c0.13-0.12,0.29-0.17,0.47-0.15c0.18,0.02,0.32,0.1,0.43,0.24l0.01,0.01c0.11,0.14,0.15,0.3,0.12,0.48
					c-0.03,0.17-0.12,0.32-0.27,0.41L245.55,25.12L245.55,25.12L245.55,25.12z"/>
				
					<radialGradient id="SVGID_00000075852767498786390150000011569614129503904693_" cx="243.3151" cy="26.819" r="12.7981" gradientUnits="userSpaceOnUse">
					<stop  offset="0" style="stop-color:#FFFFFF;stop-opacity:0"/>
					<stop  offset="0.2365" style="stop-color:#84D3F5;stop-opacity:0.5866"/>
					<stop  offset="0.6992" style="stop-color:#29ABE2"/>
				</radialGradient>
				<path style="fill:url(#SVGID_00000075852767498786390150000011569614129503904693_);" d="M235.65,29.33l5.03-1.4l0,0l-4.56,2.54
					c-0.15,0.09-0.32,0.09-0.49,0.03c-0.17-0.06-0.29-0.18-0.35-0.34l0-0.01c-0.07-0.16-0.06-0.33,0.01-0.49
					C235.36,29.5,235.48,29.38,235.65,29.33L235.65,29.33z"/>
				
					<radialGradient id="SVGID_00000095303708147801579910000017349434227757429939_" cx="243.3151" cy="26.819" r="12.7981" gradientUnits="userSpaceOnUse">
					<stop  offset="0" style="stop-color:#FFFFFF;stop-opacity:0"/>
					<stop  offset="0.2365" style="stop-color:#84D3F5;stop-opacity:0.5866"/>
					<stop  offset="0.6992" style="stop-color:#29ABE2"/>
				</radialGradient>
				<path style="fill:url(#SVGID_00000095303708147801579910000017349434227757429939_);" d="M245.92,25.76l4.58-2.54
					c0.15-0.09,0.32-0.09,0.49-0.03c0.17,0.06,0.29,0.18,0.35,0.34l0,0.01c0.07,0.16,0.06,0.33-0.01,0.49
					c-0.07,0.16-0.2,0.28-0.37,0.33L245.92,25.76L245.92,25.76L245.92,25.76z"/>
				
					<radialGradient id="SVGID_00000143588643209975232030000003998760658380395929_" cx="243.3151" cy="26.819" r="12.7981" gradientUnits="userSpaceOnUse">
					<stop  offset="0" style="stop-color:#FFFFFF;stop-opacity:0"/>
					<stop  offset="0.2365" style="stop-color:#84D3F5;stop-opacity:0.5866"/>
					<stop  offset="0.6992" style="stop-color:#29ABE2"/>
				</radialGradient>
				<path style="fill:url(#SVGID_00000143588643209975232030000003998760658380395929_);" d="M235.27,27.27l5.22-0.05l0,0
					l-5.06,1.27c-0.17,0.04-0.34,0-0.48-0.1c-0.14-0.1-0.23-0.24-0.25-0.42l0-0.01c-0.02-0.18,0.02-0.34,0.14-0.47
					C234.94,27.35,235.09,27.27,235.27,27.27L235.27,27.27z"/>
				
					<radialGradient id="SVGID_00000003073520024662767790000002464072214808315300_" cx="243.3151" cy="26.819" r="12.7981" gradientUnits="userSpaceOnUse">
					<stop  offset="0" style="stop-color:#FFFFFF;stop-opacity:0"/>
					<stop  offset="0.2365" style="stop-color:#84D3F5;stop-opacity:0.5866"/>
					<stop  offset="0.6992" style="stop-color:#29ABE2"/>
				</radialGradient>
				<path style="fill:url(#SVGID_00000003073520024662767790000002464072214808315300_);" d="M246.11,26.47l5.08-1.27
					c0.17-0.04,0.34,0,0.48,0.1c0.14,0.1,0.23,0.24,0.25,0.42l0,0.01c0.02,0.18-0.02,0.34-0.14,0.47c-0.11,0.14-0.26,0.22-0.44,0.22
					L246.11,26.47L246.11,26.47L246.11,26.47z"/>
				
					<radialGradient id="SVGID_00000111165502994533088040000011447067435464800697_" cx="243.3151" cy="26.819" r="12.7981" gradientUnits="userSpaceOnUse">
					<stop  offset="0" style="stop-color:#FFFFFF;stop-opacity:0"/>
					<stop  offset="0.2365" style="stop-color:#84D3F5;stop-opacity:0.5866"/>
					<stop  offset="0.6992" style="stop-color:#29ABE2"/>
				</radialGradient>
				<path style="fill:url(#SVGID_00000111165502994533088040000011447067435464800697_);" d="M235.43,25.17l5.05,1.3l0,0l-5.22-0.08
					c-0.18,0-0.33-0.08-0.44-0.22c-0.11-0.14-0.16-0.3-0.14-0.47l0-0.01c0.02-0.18,0.11-0.32,0.25-0.42
					C235.09,25.17,235.26,25.13,235.43,25.17L235.43,25.17z"/>
				
					<radialGradient id="SVGID_00000111150526064801828460000011993850370584255627_" cx="243.3151" cy="26.819" r="12.7981" gradientUnits="userSpaceOnUse">
					<stop  offset="0" style="stop-color:#FFFFFF;stop-opacity:0"/>
					<stop  offset="0.2365" style="stop-color:#84D3F5;stop-opacity:0.5866"/>
					<stop  offset="0.6992" style="stop-color:#29ABE2"/>
				</radialGradient>
				<path style="fill:url(#SVGID_00000111150526064801828460000011993850370584255627_);" d="M236.13,23.19l4.54,2.56l0,0
					l-5.02-1.43c-0.17-0.05-0.29-0.17-0.37-0.33c-0.07-0.16-0.08-0.33-0.01-0.49l0-0.01c0.07-0.16,0.19-0.28,0.36-0.34
					C235.81,23.1,235.98,23.1,236.13,23.19L236.13,23.19z"/>
				
					<radialGradient id="SVGID_00000078008873705047027420000012773633805822342300_" cx="243.3151" cy="26.819" r="12.7981" gradientUnits="userSpaceOnUse">
					<stop  offset="0" style="stop-color:#FFFFFF;stop-opacity:0"/>
					<stop  offset="0.2365" style="stop-color:#84D3F5;stop-opacity:0.5866"/>
					<stop  offset="0.6992" style="stop-color:#29ABE2"/>
				</radialGradient>
				<path style="fill:url(#SVGID_00000078008873705047027420000012773633805822342300_);" d="M237.32,21.46l3.72,3.65l0,0
					l-4.48-2.68c-0.15-0.09-0.24-0.24-0.27-0.41c-0.03-0.17,0.01-0.34,0.12-0.48l0.01-0.01c0.11-0.14,0.25-0.22,0.43-0.24
					C237.03,21.28,237.19,21.33,237.32,21.46L237.32,21.46z"/>
				
					<radialGradient id="SVGID_00000016037396465182816840000001343705455233162121_" cx="243.3151" cy="26.819" r="12.7981" gradientUnits="userSpaceOnUse">
					<stop  offset="0" style="stop-color:#FFFFFF;stop-opacity:0"/>
					<stop  offset="0.2365" style="stop-color:#84D3F5;stop-opacity:0.5866"/>
					<stop  offset="0.6992" style="stop-color:#29ABE2"/>
				</radialGradient>
				<path style="fill:url(#SVGID_00000016037396465182816840000001343705455233162121_);" d="M238.92,20.09l2.65,4.49l0,0
					l-3.63-3.75c-0.12-0.13-0.17-0.29-0.15-0.47c0.02-0.18,0.1-0.32,0.24-0.43l0.01-0.01c0.14-0.11,0.3-0.15,0.48-0.12
					C238.68,19.85,238.83,19.94,238.92,20.09L238.92,20.09z"/>
				
					<radialGradient id="SVGID_00000036969444027022283670000005581856354525561489_" cx="243.3151" cy="26.819" r="12.7981" gradientUnits="userSpaceOnUse">
					<stop  offset="0" style="stop-color:#FFFFFF;stop-opacity:0"/>
					<stop  offset="0.2365" style="stop-color:#84D3F5;stop-opacity:0.5866"/>
					<stop  offset="0.6992" style="stop-color:#29ABE2"/>
				</radialGradient>
				<path style="fill:url(#SVGID_00000036969444027022283670000005581856354525561489_);" d="M240.82,19.19l1.4,5.03l0,0l-2.54-4.56
					c-0.09-0.15-0.09-0.32-0.03-0.49c0.06-0.17,0.18-0.29,0.34-0.35l0.01,0c0.16-0.07,0.33-0.06,0.49,0.01
					C240.65,18.89,240.77,19.01,240.82,19.19L240.82,19.19z"/>
				
					<radialGradient id="SVGID_00000084521115753485911780000011151718254238792595_" cx="243.3151" cy="26.819" r="12.7981" gradientUnits="userSpaceOnUse">
					<stop  offset="0" style="stop-color:#FFFFFF;stop-opacity:0"/>
					<stop  offset="0.2365" style="stop-color:#84D3F5;stop-opacity:0.5866"/>
					<stop  offset="0.6992" style="stop-color:#29ABE2"/>
				</radialGradient>
				<path style="fill:url(#SVGID_00000084521115753485911780000011151718254238792595_);" d="M243.75,15.47l-0.46,3.85l0,0
					l-0.46-3.85c-0.02-0.13,0.03-0.25,0.12-0.34c0.09-0.1,0.2-0.15,0.33-0.15h0.01c0.13,0,0.25,0.05,0.34,0.15
					C243.72,15.22,243.77,15.34,243.75,15.47L243.75,15.47z"/>
				
					<radialGradient id="SVGID_00000114073117794533361790000013379048646823516862_" cx="243.3151" cy="26.819" r="12.7981" gradientUnits="userSpaceOnUse">
					<stop  offset="0" style="stop-color:#FFFFFF;stop-opacity:0"/>
					<stop  offset="0.2365" style="stop-color:#84D3F5;stop-opacity:0.5866"/>
					<stop  offset="0.6992" style="stop-color:#29ABE2"/>
				</radialGradient>
				<path style="fill:url(#SVGID_00000114073117794533361790000013379048646823516862_);" d="M241.38,34.1l-0.56,3.85
					c-0.02,0.13-0.09,0.23-0.2,0.3c-0.11,0.07-0.23,0.09-0.36,0.06l-0.01,0c-0.13-0.03-0.22-0.11-0.29-0.23
					c-0.06-0.12-0.08-0.24-0.03-0.36L241.38,34.1L241.38,34.1L241.38,34.1z"/>
				
					<radialGradient id="SVGID_00000158726916387857965520000016759251175071177358_" cx="243.3151" cy="26.819" r="12.7981" gradientUnits="userSpaceOnUse">
					<stop  offset="0" style="stop-color:#FFFFFF;stop-opacity:0"/>
					<stop  offset="0.2365" style="stop-color:#84D3F5;stop-opacity:0.5866"/>
					<stop  offset="0.6992" style="stop-color:#29ABE2"/>
				</radialGradient>
				<path style="fill:url(#SVGID_00000158726916387857965520000016759251175071177358_);" d="M246.68,15.97l-1.44,3.6l0,0l0.55-3.84
					c0.02-0.13,0.09-0.23,0.2-0.3c0.11-0.07,0.23-0.09,0.36-0.06l0.01,0c0.13,0.03,0.23,0.11,0.29,0.23
					C246.72,15.73,246.73,15.85,246.68,15.97L246.68,15.97z"/>
				
					<radialGradient id="SVGID_00000118387115274477695410000009295026741450271399_" cx="243.3151" cy="26.819" r="12.7981" gradientUnits="userSpaceOnUse">
					<stop  offset="0" style="stop-color:#FFFFFF;stop-opacity:0"/>
					<stop  offset="0.2365" style="stop-color:#84D3F5;stop-opacity:0.5866"/>
					<stop  offset="0.6992" style="stop-color:#29ABE2"/>
				</radialGradient>
				<path style="fill:url(#SVGID_00000118387115274477695410000009295026741450271399_);" d="M239.57,33.35l-1.54,3.58
					c-0.05,0.12-0.15,0.2-0.28,0.24c-0.13,0.04-0.25,0.03-0.36-0.04l-0.01,0c-0.11-0.07-0.19-0.17-0.22-0.29
					c-0.03-0.13-0.01-0.25,0.07-0.36L239.57,33.35L239.57,33.35L239.57,33.35z"/>
				
					<radialGradient id="SVGID_00000018950907011587923670000010421717836487774652_" cx="243.3151" cy="26.819" r="12.7981" gradientUnits="userSpaceOnUse">
					<stop  offset="0" style="stop-color:#FFFFFF;stop-opacity:0"/>
					<stop  offset="0.2365" style="stop-color:#84D3F5;stop-opacity:0.5866"/>
					<stop  offset="0.6992" style="stop-color:#29ABE2"/>
				</radialGradient>
				<path style="fill:url(#SVGID_00000018950907011587923670000010421717836487774652_);" d="M249.38,17.22l-2.32,3.11l0,0
					l1.53-3.56c0.05-0.12,0.15-0.2,0.28-0.24c0.13-0.04,0.25-0.03,0.36,0.04l0.01,0c0.11,0.07,0.19,0.17,0.22,0.29
					C249.48,16.99,249.46,17.11,249.38,17.22L249.38,17.22z"/>
				
					<radialGradient id="SVGID_00000038374271458983398920000015762875444175697847_" cx="243.3151" cy="26.819" r="12.7981" gradientUnits="userSpaceOnUse">
					<stop  offset="0" style="stop-color:#FFFFFF;stop-opacity:0"/>
					<stop  offset="0.2365" style="stop-color:#84D3F5;stop-opacity:0.5866"/>
					<stop  offset="0.6992" style="stop-color:#29ABE2"/>
				</radialGradient>
				<path style="fill:url(#SVGID_00000038374271458983398920000015762875444175697847_);" d="M238.01,32.16l-2.41,3.06
					c-0.08,0.1-0.2,0.15-0.33,0.16c-0.13,0.01-0.25-0.04-0.34-0.13l-0.01-0.01c-0.09-0.09-0.14-0.21-0.13-0.34
					c0.01-0.13,0.06-0.25,0.16-0.33L238.01,32.16L238.01,32.16L238.01,32.16z"/>
				
					<radialGradient id="SVGID_00000078040719337309206550000004505062041837752493_" cx="243.3151" cy="26.819" r="12.7981" gradientUnits="userSpaceOnUse">
					<stop  offset="0" style="stop-color:#FFFFFF;stop-opacity:0"/>
					<stop  offset="0.2365" style="stop-color:#84D3F5;stop-opacity:0.5866"/>
					<stop  offset="0.6992" style="stop-color:#29ABE2"/>
				</radialGradient>
				<path style="fill:url(#SVGID_00000078040719337309206550000004505062041837752493_);" d="M251.66,19.12l-3.05,2.4l0,0l2.4-3.05
					c0.08-0.1,0.2-0.15,0.33-0.16c0.13-0.01,0.25,0.04,0.34,0.13l0.01,0c0.09,0.09,0.14,0.21,0.13,0.34
					C251.82,18.92,251.77,19.03,251.66,19.12L251.66,19.12z"/>
				
					<radialGradient id="SVGID_00000002378713016437640940000015962778313418939279_" cx="243.3151" cy="26.819" r="12.7981" gradientUnits="userSpaceOnUse">
					<stop  offset="0" style="stop-color:#FFFFFF;stop-opacity:0"/>
					<stop  offset="0.2365" style="stop-color:#84D3F5;stop-opacity:0.5866"/>
					<stop  offset="0.6992" style="stop-color:#29ABE2"/>
				</radialGradient>
				<path style="fill:url(#SVGID_00000002378713016437640940000015962778313418939279_);" d="M236.81,30.61l-3.12,2.33
					c-0.11,0.08-0.23,0.1-0.36,0.07c-0.13-0.03-0.23-0.1-0.29-0.22l0-0.01c-0.07-0.11-0.08-0.24-0.04-0.36
					c0.04-0.13,0.12-0.22,0.24-0.28L236.81,30.61L236.81,30.61L236.81,30.61z"/>
				
					<radialGradient id="SVGID_00000043448167348881380580000011370703657298381227_" cx="243.3151" cy="26.819" r="12.7981" gradientUnits="userSpaceOnUse">
					<stop  offset="0" style="stop-color:#FFFFFF;stop-opacity:0"/>
					<stop  offset="0.2365" style="stop-color:#84D3F5;stop-opacity:0.5866"/>
					<stop  offset="0.6992" style="stop-color:#29ABE2"/>
				</radialGradient>
				<path style="fill:url(#SVGID_00000043448167348881380580000011370703657298381227_);" d="M253.38,21.54l-3.56,1.53l0,0l3.1-2.32
					c0.11-0.08,0.23-0.1,0.36-0.07c0.13,0.03,0.23,0.1,0.29,0.22l0,0.01c0.07,0.11,0.08,0.24,0.04,0.36
					C253.58,21.39,253.5,21.49,253.38,21.54L253.38,21.54z"/>
				
					<radialGradient id="SVGID_00000088093757184323915870000014688250825532482741_" cx="243.3151" cy="26.819" r="12.7981" gradientUnits="userSpaceOnUse">
					<stop  offset="0" style="stop-color:#FFFFFF;stop-opacity:0"/>
					<stop  offset="0.2365" style="stop-color:#84D3F5;stop-opacity:0.5866"/>
					<stop  offset="0.6992" style="stop-color:#29ABE2"/>
				</radialGradient>
				<path style="fill:url(#SVGID_00000088093757184323915870000014688250825532482741_);" d="M236.06,28.8l-3.62,1.44
					c-0.12,0.05-0.25,0.04-0.36-0.03c-0.12-0.06-0.19-0.16-0.23-0.28l0-0.01c-0.03-0.13-0.02-0.25,0.05-0.36
					c0.07-0.11,0.17-0.19,0.3-0.21L236.06,28.8L236.06,28.8L236.06,28.8z"/>
				
					<radialGradient id="SVGID_00000151528269277819354000000016194169257156091781_" cx="243.3151" cy="26.819" r="12.7981" gradientUnits="userSpaceOnUse">
					<stop  offset="0" style="stop-color:#FFFFFF;stop-opacity:0"/>
					<stop  offset="0.2365" style="stop-color:#84D3F5;stop-opacity:0.5866"/>
					<stop  offset="0.6992" style="stop-color:#29ABE2"/>
				</radialGradient>
				<path style="fill:url(#SVGID_00000151528269277819354000000016194169257156091781_);" d="M254.41,24.33l-3.84,0.56l0,0l3.6-1.44
					c0.12-0.05,0.25-0.04,0.36,0.03c0.12,0.06,0.19,0.16,0.23,0.28l0,0.01c0.03,0.13,0.02,0.25-0.05,0.36
					C254.64,24.24,254.54,24.31,254.41,24.33L254.41,24.33z"/>
				
					<radialGradient id="SVGID_00000088105056996359316560000011258677649978685624_" cx="243.3151" cy="26.819" r="12.7981" gradientUnits="userSpaceOnUse">
					<stop  offset="0" style="stop-color:#FFFFFF;stop-opacity:0"/>
					<stop  offset="0.2365" style="stop-color:#84D3F5;stop-opacity:0.5866"/>
					<stop  offset="0.6992" style="stop-color:#29ABE2"/>
				</radialGradient>
				<path style="fill:url(#SVGID_00000088105056996359316560000011258677649978685624_);" d="M235.8,26.86l-3.87,0.46
					c-0.13,0.02-0.25-0.03-0.34-0.12c-0.1-0.09-0.15-0.2-0.15-0.33v-0.01c0-0.13,0.05-0.25,0.15-0.34c0.1-0.09,0.21-0.14,0.35-0.12
					L235.8,26.86L235.8,26.86L235.8,26.86z"/>
				
					<radialGradient id="SVGID_00000029029807656174831410000005761286847355801226_" cx="243.3151" cy="26.819" r="12.7981" gradientUnits="userSpaceOnUse">
					<stop  offset="0" style="stop-color:#FFFFFF;stop-opacity:0"/>
					<stop  offset="0.2365" style="stop-color:#84D3F5;stop-opacity:0.5866"/>
					<stop  offset="0.6992" style="stop-color:#29ABE2"/>
				</radialGradient>
				<path style="fill:url(#SVGID_00000029029807656174831410000005761286847355801226_);" d="M236.05,24.91l-3.85-0.56
					c-0.13-0.02-0.23-0.09-0.3-0.2c-0.07-0.11-0.09-0.23-0.06-0.36l0-0.01c0.03-0.13,0.11-0.22,0.23-0.29
					c0.12-0.06,0.24-0.08,0.36-0.03L236.05,24.91L236.05,24.91L236.05,24.91z"/>
				
					<radialGradient id="SVGID_00000144315636225400923530000009238365039619161258_" cx="243.3151" cy="26.819" r="12.7981" gradientUnits="userSpaceOnUse">
					<stop  offset="0" style="stop-color:#FFFFFF;stop-opacity:0"/>
					<stop  offset="0.2365" style="stop-color:#84D3F5;stop-opacity:0.5866"/>
					<stop  offset="0.6992" style="stop-color:#29ABE2"/>
				</radialGradient>
				<path style="fill:url(#SVGID_00000144315636225400923530000009238365039619161258_);" d="M236.8,23.1l-3.58-1.54
					c-0.12-0.05-0.2-0.15-0.24-0.28c-0.04-0.13-0.03-0.25,0.04-0.36l0-0.01c0.07-0.11,0.17-0.19,0.29-0.22
					c0.13-0.03,0.25-0.01,0.36,0.07L236.8,23.1L236.8,23.1L236.8,23.1z"/>
				
					<radialGradient id="SVGID_00000094618702065926351500000011258148819477058688_" cx="243.3151" cy="26.819" r="12.7981" gradientUnits="userSpaceOnUse">
					<stop  offset="0" style="stop-color:#FFFFFF;stop-opacity:0"/>
					<stop  offset="0.2365" style="stop-color:#84D3F5;stop-opacity:0.5866"/>
					<stop  offset="0.6992" style="stop-color:#29ABE2"/>
				</radialGradient>
				<path style="fill:url(#SVGID_00000094618702065926351500000011258148819477058688_);" d="M237.99,21.55l-3.06-2.41
					c-0.1-0.08-0.15-0.2-0.16-0.33c-0.01-0.13,0.04-0.25,0.13-0.34l0.01-0.01c0.09-0.09,0.21-0.14,0.34-0.13
					c0.13,0.01,0.25,0.06,0.33,0.16L237.99,21.55L237.99,21.55z"/>
				
					<radialGradient id="SVGID_00000093863024761224638210000007699873284296923025_" cx="243.3151" cy="26.819" r="12.7981" gradientUnits="userSpaceOnUse">
					<stop  offset="0" style="stop-color:#FFFFFF;stop-opacity:0"/>
					<stop  offset="0.2365" style="stop-color:#84D3F5;stop-opacity:0.5866"/>
					<stop  offset="0.6992" style="stop-color:#29ABE2"/>
				</radialGradient>
				<path style="fill:url(#SVGID_00000093863024761224638210000007699873284296923025_);" d="M239.54,20.35l-2.33-3.12
					c-0.08-0.11-0.1-0.23-0.07-0.36c0.03-0.13,0.1-0.23,0.22-0.29l0.01,0c0.11-0.07,0.24-0.08,0.36-0.04
					c0.13,0.04,0.22,0.12,0.28,0.24L239.54,20.35L239.54,20.35L239.54,20.35z"/>
				
					<radialGradient id="SVGID_00000167362556231489430990000000580612118483731348_" cx="243.3151" cy="26.819" r="12.7981" gradientUnits="userSpaceOnUse">
					<stop  offset="0" style="stop-color:#FFFFFF;stop-opacity:0"/>
					<stop  offset="0.2365" style="stop-color:#84D3F5;stop-opacity:0.5866"/>
					<stop  offset="0.6992" style="stop-color:#29ABE2"/>
				</radialGradient>
				<path style="fill:url(#SVGID_00000167362556231489430990000000580612118483731348_);" d="M241.35,19.6l-1.44-3.62
					c-0.05-0.12-0.04-0.25,0.03-0.36c0.06-0.12,0.16-0.19,0.28-0.23l0.01,0c0.13-0.03,0.25-0.02,0.36,0.05
					c0.11,0.07,0.19,0.17,0.21,0.3L241.35,19.6L241.35,19.6L241.35,19.6z"/>
				
					<radialGradient id="SVGID_00000044155245925617299340000004976334404702667144_" cx="243.3151" cy="26.819" r="12.7981" gradientUnits="userSpaceOnUse">
					<stop  offset="0" style="stop-color:#FFFFFF;stop-opacity:0"/>
					<stop  offset="0.2365" style="stop-color:#84D3F5;stop-opacity:0.5866"/>
					<stop  offset="0.6992" style="stop-color:#29ABE2"/>
				</radialGradient>
				<path style="fill:url(#SVGID_00000044155245925617299340000004976334404702667144_);" d="M244.57,17.18l0.03-1.86
					c0-0.06,0.03-0.12,0.08-0.16c0.05-0.04,0.11-0.06,0.17-0.05l0,0c0.06,0.01,0.11,0.04,0.15,0.09c0.04,0.05,0.05,0.11,0.04,0.17
					L244.57,17.18L244.57,17.18z"/>
				
					<radialGradient id="SVGID_00000128469427344381112880000001303158454706822810_" cx="243.3151" cy="26.819" r="12.7981" gradientUnits="userSpaceOnUse">
					<stop  offset="0" style="stop-color:#FFFFFF;stop-opacity:0"/>
					<stop  offset="0.2365" style="stop-color:#84D3F5;stop-opacity:0.5866"/>
					<stop  offset="0.6992" style="stop-color:#29ABE2"/>
				</radialGradient>
				<path style="fill:url(#SVGID_00000128469427344381112880000001303158454706822810_);" d="M241.58,38.31l0.46-1.8l-0.02,1.85
					c0,0.06-0.03,0.12-0.08,0.16c-0.05,0.04-0.11,0.06-0.17,0.05l0,0c-0.06-0.01-0.11-0.04-0.15-0.09
					C241.58,38.43,241.57,38.37,241.58,38.31L241.58,38.31z"/>
				
					<radialGradient id="SVGID_00000049213102105058688180000013933579593924257701_" cx="243.3151" cy="26.819" r="12.7981" gradientUnits="userSpaceOnUse">
					<stop  offset="0" style="stop-color:#FFFFFF;stop-opacity:0"/>
					<stop  offset="0.2365" style="stop-color:#84D3F5;stop-opacity:0.5866"/>
					<stop  offset="0.6992" style="stop-color:#29ABE2"/>
				</radialGradient>
				<path style="fill:url(#SVGID_00000049213102105058688180000013933579593924257701_);" d="M247.03,17.84l0.51-1.79
					c0.02-0.06,0.06-0.1,0.12-0.13c0.06-0.03,0.12-0.03,0.17,0l0,0c0.06,0.02,0.1,0.07,0.12,0.13c0.02,0.06,0.02,0.12-0.01,0.17
					L247.03,17.84L247.03,17.84z"/>
				
					<radialGradient id="SVGID_00000123440864798286057380000015734729127932775843_" cx="243.3151" cy="26.819" r="12.7981" gradientUnits="userSpaceOnUse">
					<stop  offset="0" style="stop-color:#FFFFFF;stop-opacity:0"/>
					<stop  offset="0.2365" style="stop-color:#84D3F5;stop-opacity:0.5866"/>
					<stop  offset="0.6992" style="stop-color:#29ABE2"/>
				</radialGradient>
				<path style="fill:url(#SVGID_00000123440864798286057380000015734729127932775843_);" d="M238.67,37.48l0.91-1.62l-0.5,1.78
					c-0.02,0.06-0.06,0.1-0.12,0.13c-0.06,0.03-0.12,0.03-0.17,0l0,0c-0.06-0.02-0.1-0.07-0.12-0.13
					C238.64,37.59,238.64,37.53,238.67,37.48L238.67,37.48z"/>
				
					<radialGradient id="SVGID_00000035491708636260938870000003960020474924024966_" cx="243.3151" cy="26.819" r="12.7981" gradientUnits="userSpaceOnUse">
					<stop  offset="0" style="stop-color:#FFFFFF;stop-opacity:0"/>
					<stop  offset="0.2365" style="stop-color:#84D3F5;stop-opacity:0.5866"/>
					<stop  offset="0.6992" style="stop-color:#29ABE2"/>
				</radialGradient>
				<path style="fill:url(#SVGID_00000035491708636260938870000003960020474924024966_);" d="M249.24,19.11l0.95-1.6
					c0.03-0.05,0.08-0.09,0.15-0.1c0.06-0.01,0.12,0,0.17,0.04l0,0c0.05,0.04,0.08,0.09,0.09,0.15c0.01,0.06-0.01,0.12-0.06,0.17
					L249.24,19.11L249.24,19.11z"/>
				
					<radialGradient id="SVGID_00000124137168567867131440000017224900869861970348_" cx="243.3151" cy="26.819" r="12.7981" gradientUnits="userSpaceOnUse">
					<stop  offset="0" style="stop-color:#FFFFFF;stop-opacity:0"/>
					<stop  offset="0.2365" style="stop-color:#84D3F5;stop-opacity:0.5866"/>
					<stop  offset="0.6992" style="stop-color:#29ABE2"/>
				</radialGradient>
				<path style="fill:url(#SVGID_00000124137168567867131440000017224900869861970348_);" d="M236.08,35.91l1.29-1.33l-0.95,1.59
					c-0.03,0.05-0.08,0.09-0.15,0.1c-0.06,0.01-0.12,0-0.17-0.04l0,0c-0.05-0.04-0.08-0.09-0.09-0.15
					C236.02,36.02,236.03,35.96,236.08,35.91L236.08,35.91z"/>
				
					<radialGradient id="SVGID_00000038393618465794017530000007039981575692725679_" cx="243.3151" cy="26.819" r="12.7981" gradientUnits="userSpaceOnUse">
					<stop  offset="0" style="stop-color:#FFFFFF;stop-opacity:0"/>
					<stop  offset="0.2365" style="stop-color:#84D3F5;stop-opacity:0.5866"/>
					<stop  offset="0.6992" style="stop-color:#29ABE2"/>
				</radialGradient>
				<path style="fill:url(#SVGID_00000038393618465794017530000007039981575692725679_);" d="M251.04,20.91l1.33-1.3
					c0.04-0.04,0.1-0.06,0.17-0.06c0.06,0.01,0.11,0.03,0.15,0.08l0,0c0.04,0.05,0.05,0.11,0.04,0.17c-0.01,0.06-0.04,0.11-0.1,0.15
					L251.04,20.91L251.04,20.91z"/>
				
					<radialGradient id="SVGID_00000039856675303580568530000014331437698952547745_" cx="243.3151" cy="26.819" r="12.7981" gradientUnits="userSpaceOnUse">
					<stop  offset="0" style="stop-color:#FFFFFF;stop-opacity:0"/>
					<stop  offset="0.2365" style="stop-color:#84D3F5;stop-opacity:0.5866"/>
					<stop  offset="0.6992" style="stop-color:#29ABE2"/>
				</radialGradient>
				<path style="fill:url(#SVGID_00000039856675303580568530000014331437698952547745_);" d="M233.98,33.73l1.59-0.95l-1.33,1.29
					c-0.04,0.04-0.1,0.06-0.17,0.06c-0.06-0.01-0.11-0.03-0.15-0.08l0,0c-0.04-0.05-0.05-0.11-0.04-0.17
					C233.89,33.82,233.92,33.76,233.98,33.73L233.98,33.73z"/>
				
					<radialGradient id="SVGID_00000135664181674068904690000007791504834862445232_" cx="243.3151" cy="26.819" r="12.7981" gradientUnits="userSpaceOnUse">
					<stop  offset="0" style="stop-color:#FFFFFF;stop-opacity:0"/>
					<stop  offset="0.2365" style="stop-color:#84D3F5;stop-opacity:0.5866"/>
					<stop  offset="0.6992" style="stop-color:#29ABE2"/>
				</radialGradient>
				<path style="fill:url(#SVGID_00000135664181674068904690000007791504834862445232_);" d="M252.31,23.11l1.63-0.91
					c0.05-0.03,0.11-0.03,0.17-0.01c0.06,0.02,0.1,0.06,0.13,0.12l0,0c0.02,0.06,0.02,0.12,0,0.18c-0.03,0.06-0.07,0.1-0.13,0.12
					L252.31,23.11L252.31,23.11z"/>
				
					<radialGradient id="SVGID_00000070833709244070964710000014796798642534084785_" cx="243.3151" cy="26.819" r="12.7981" gradientUnits="userSpaceOnUse">
					<stop  offset="0" style="stop-color:#FFFFFF;stop-opacity:0"/>
					<stop  offset="0.2365" style="stop-color:#84D3F5;stop-opacity:0.5866"/>
					<stop  offset="0.6992" style="stop-color:#29ABE2"/>
				</radialGradient>
				<path style="fill:url(#SVGID_00000070833709244070964710000014796798642534084785_);" d="M232.51,31.08l1.79-0.5l-1.62,0.91
					c-0.05,0.03-0.11,0.03-0.17,0.01c-0.06-0.02-0.1-0.06-0.13-0.12l0,0c-0.02-0.06-0.02-0.12,0-0.18
					C232.41,31.14,232.45,31.1,232.51,31.08L232.51,31.08z"/>
				
					<radialGradient id="SVGID_00000177445332787903693420000009525378552690572971_" cx="243.3151" cy="26.819" r="12.7981" gradientUnits="userSpaceOnUse">
					<stop  offset="0" style="stop-color:#FFFFFF;stop-opacity:0"/>
					<stop  offset="0.2365" style="stop-color:#84D3F5;stop-opacity:0.5866"/>
					<stop  offset="0.6992" style="stop-color:#29ABE2"/>
				</radialGradient>
				<path style="fill:url(#SVGID_00000177445332787903693420000009525378552690572971_);" d="M252.97,25.57l1.81-0.46
					c0.06-0.02,0.12,0,0.17,0.04c0.05,0.04,0.08,0.09,0.09,0.15l0,0c0.01,0.06-0.01,0.12-0.05,0.17c-0.04,0.05-0.09,0.08-0.16,0.08
					L252.97,25.57L252.97,25.57z"/>
				
					<radialGradient id="SVGID_00000161622353613784913030000010705521020164782998_" cx="243.3151" cy="26.819" r="12.7981" gradientUnits="userSpaceOnUse">
					<stop  offset="0" style="stop-color:#FFFFFF;stop-opacity:0"/>
					<stop  offset="0.2365" style="stop-color:#84D3F5;stop-opacity:0.5866"/>
					<stop  offset="0.6992" style="stop-color:#29ABE2"/>
				</radialGradient>
				<path style="fill:url(#SVGID_00000161622353613784913030000010705521020164782998_);" d="M231.78,28.15l1.85-0.02l-1.8,0.46
					c-0.06,0.02-0.12,0-0.17-0.04c-0.05-0.04-0.08-0.09-0.09-0.15l0,0c-0.01-0.06,0.01-0.12,0.05-0.17
					C231.67,28.18,231.72,28.15,231.78,28.15L231.78,28.15z"/>
				
					<radialGradient id="SVGID_00000005978078245002469810000015372815684103467685_" cx="243.3151" cy="26.819" r="12.7981" gradientUnits="userSpaceOnUse">
					<stop  offset="0" style="stop-color:#FFFFFF;stop-opacity:0"/>
					<stop  offset="0.2365" style="stop-color:#84D3F5;stop-opacity:0.5866"/>
					<stop  offset="0.6992" style="stop-color:#29ABE2"/>
				</radialGradient>
				<path style="fill:url(#SVGID_00000005978078245002469810000015372815684103467685_);" d="M231.84,25.12l1.8,0.46l-1.85-0.02
					c-0.06,0-0.12-0.03-0.16-0.08c-0.04-0.05-0.06-0.11-0.05-0.17l0,0c0.01-0.06,0.04-0.11,0.09-0.15
					C231.72,25.12,231.78,25.1,231.84,25.12L231.84,25.12z"/>
				
					<radialGradient id="SVGID_00000099650116777542100110000000011827181047489952_" cx="243.3151" cy="26.819" r="12.7981" gradientUnits="userSpaceOnUse">
					<stop  offset="0" style="stop-color:#FFFFFF;stop-opacity:0"/>
					<stop  offset="0.2365" style="stop-color:#84D3F5;stop-opacity:0.5866"/>
					<stop  offset="0.6992" style="stop-color:#29ABE2"/>
				</radialGradient>
				<path style="fill:url(#SVGID_00000099650116777542100110000000011827181047489952_);" d="M232.68,22.21l1.62,0.91l-1.79-0.5
					c-0.06-0.02-0.1-0.06-0.13-0.12c-0.03-0.06-0.03-0.12,0-0.17l0,0c0.02-0.06,0.07-0.1,0.13-0.12
					C232.56,22.18,232.62,22.18,232.68,22.21L232.68,22.21z"/>
				
					<radialGradient id="SVGID_00000060031308665048254280000000765587538102008991_" cx="243.3151" cy="26.819" r="12.7981" gradientUnits="userSpaceOnUse">
					<stop  offset="0" style="stop-color:#FFFFFF;stop-opacity:0"/>
					<stop  offset="0.2365" style="stop-color:#84D3F5;stop-opacity:0.5866"/>
					<stop  offset="0.6992" style="stop-color:#29ABE2"/>
				</radialGradient>
				<path style="fill:url(#SVGID_00000060031308665048254280000000765587538102008991_);" d="M234.24,19.62l1.33,1.29l-1.59-0.95
					c-0.05-0.03-0.09-0.08-0.1-0.15c-0.01-0.06,0-0.12,0.04-0.17l0,0c0.04-0.05,0.09-0.08,0.15-0.09
					C234.14,19.55,234.19,19.57,234.24,19.62L234.24,19.62z"/>
				
					<radialGradient id="SVGID_00000150805918382281625420000006650237146187213481_" cx="243.3151" cy="26.819" r="12.7981" gradientUnits="userSpaceOnUse">
					<stop  offset="0" style="stop-color:#FFFFFF;stop-opacity:0"/>
					<stop  offset="0.2365" style="stop-color:#84D3F5;stop-opacity:0.5866"/>
					<stop  offset="0.6992" style="stop-color:#29ABE2"/>
				</radialGradient>
				<path style="fill:url(#SVGID_00000150805918382281625420000006650237146187213481_);" d="M236.42,17.51l0.95,1.59l-1.29-1.33
					c-0.04-0.04-0.06-0.1-0.06-0.17c0.01-0.06,0.03-0.11,0.08-0.15l0,0c0.05-0.04,0.11-0.05,0.17-0.04
					C236.34,17.43,236.39,17.46,236.42,17.51L236.42,17.51z"/>
				
					<radialGradient id="SVGID_00000036227972499413310160000000826271020650188977_" cx="243.3151" cy="26.819" r="12.7981" gradientUnits="userSpaceOnUse">
					<stop  offset="0" style="stop-color:#FFFFFF;stop-opacity:0"/>
					<stop  offset="0.2365" style="stop-color:#84D3F5;stop-opacity:0.5866"/>
					<stop  offset="0.6992" style="stop-color:#29ABE2"/>
				</radialGradient>
				<path style="fill:url(#SVGID_00000036227972499413310160000000826271020650188977_);" d="M239.07,16.05l0.5,1.79l-0.91-1.62
					c-0.03-0.05-0.03-0.11-0.01-0.17c0.02-0.06,0.06-0.1,0.12-0.13l0,0c0.06-0.02,0.12-0.02,0.18,0
					C239.01,15.95,239.05,15.99,239.07,16.05L239.07,16.05z"/>
				
					<radialGradient id="SVGID_00000147942848290012401350000017857236377127629746_" cx="243.3151" cy="26.819" r="12.7981" gradientUnits="userSpaceOnUse">
					<stop  offset="0" style="stop-color:#FFFFFF;stop-opacity:0"/>
					<stop  offset="0.2365" style="stop-color:#84D3F5;stop-opacity:0.5866"/>
					<stop  offset="0.6992" style="stop-color:#29ABE2"/>
				</radialGradient>
				<path style="fill:url(#SVGID_00000147942848290012401350000017857236377127629746_);" d="M242.01,15.32l0.02,1.85l-0.46-1.8
					c-0.02-0.06,0-0.12,0.04-0.17c0.04-0.05,0.09-0.08,0.15-0.09l0,0c0.06-0.01,0.12,0.01,0.17,0.05
					C241.98,15.2,242.01,15.26,242.01,15.32L242.01,15.32z"/>
			</g>
		</g>
	</g>
</g>
<g>
	<g>
		<path class="st1" d="M250.9,48.65L250.9,48.65c0.33,0.33,0.94,0,0.82-0.45c-0.12-0.45,1.24-3.48,2.81-6.23
			c2.03-3.57,5.96-9.32,8.69-12.65c0.94-1.12,1.09-1.36,1-1.51c-0.24-0.39-0.51-0.18-1.6,1.15c-0.85,1.03-3.84,4.12-5.36,5.51
			c-1.3,1.21-3.84,3.24-5.02,4.02c-1.79,1.15-3.42,1.82-4.57,1.82c-1.09,0-1.69-0.39-1.85-1.27c-0.36-1.94,2.45-7.02,5.45-9.87
			c0.42-0.39,0.76-0.79,0.76-0.85c0-0.06-0.09-0.15-0.21-0.21c-0.18-0.09-0.3-0.03-0.79,0.33c-1.73,1.3-4.3,4.84-5.36,7.35
			c-1.21,2.87-0.85,4.57,1.06,5.02c0.7,0.18,1.15,0.18,1.91,0.03c2.42-0.51,5.75-2.72,9.74-6.45c0.39-0.36,0.42-0.39,0.24-0.12
			c-0.67,0.91-2.54,3.78-3.48,5.3c-1.69,2.75-2.66,4.63-3.66,7.08c-0.61,1.45-0.73,1.91-0.54,2.09L250.9,48.65L250.9,48.65z
			 M264.67,40.23c-2.06,1.6-3.42,2.3-4.48,2.3c-0.76,0-1.15-0.24-1.18-0.73c-0.03-0.18,0-0.42,0.06-0.54
			c0.09-0.18,0.15-0.09,0.76-0.12c0.36-0.03,0.73-0.09,1.06-0.39c0.61-0.51,0.64-1.06,0.12-1.3c-0.12-0.06-0.24-0.09-0.36-0.09
			c-0.94,0-2.24,1.15-2.36,2.21c-0.09,0.76,0.45,1.3,1.48,1.48c1.33,0.21,2.87-0.45,5.11-2.21c0.7-0.54,1-0.91,1-1
			c0.03-0.18-0.09-0.42-1.18,0.42L264.67,40.23L264.67,40.23z M259.83,40.27c0.3-0.24,0.67-0.42,0.82-0.42c0.03,0,0.06,0,0.06,0
			c0.12,0.09-0.12,0.42-0.42,0.58c-0.39,0.18-0.39,0.18-0.58,0.09c-0.09-0.06-0.06-0.15,0.15-0.33L259.83,40.27L259.83,40.27z
			 M272.45,39.93c-0.24,0.15-0.54,0.39-0.94,0.7c-1.39,1.12-2.24,1.57-2.94,1.63c-0.36,0.03-0.45,0-0.58-0.15
			c-0.18-0.27-0.06-0.82,0.33-1.54c0.27-0.48,0.3-0.61,0.18-0.73c-0.18-0.18-0.3-0.15-0.64,0.12l-0.3,0.24l-0.15-0.3
			c-0.18-0.36-0.51-0.54-0.94-0.54c-0.33,0-0.73,0.12-1.15,0.36c-1.48,0.85-2.51,2.69-1.76,3.15c0.54,0.33,1.54-0.03,2.94-1.09
			l0.73-0.54v0.51c0,0.45,0.03,0.54,0.36,0.82c0.61,0.48,1.36,0.39,2.69-0.36c0.73-0.42,1.88-1.3,2.48-1.91
			c0.21-0.21,0.33-0.36,0.33-0.42c0-0.33-0.15-0.36-0.73,0.03L272.45,39.93L272.45,39.93z M266.25,41.2c-0.39,0.3-1,0.7-1.33,0.91
			c-0.79,0.45-0.97,0.48-0.88,0.09c0.21-0.88,1.88-2.3,2.54-2.27c0.06,0,0.12,0.03,0.15,0.06c0.06,0.03,0.15,0.21,0.21,0.39
			c0.09,0.3,0.06,0.33-0.64,0.85L266.25,41.2z M277.72,39.75c-0.45,0.15-0.82,0.21-1.24,0.21c-0.73,0-0.88-0.18-1.12-0.54
			c-0.36-0.61-0.51-0.58-1.63,0.3c-0.91,0.73-0.94,0.73-0.7,0.36c0.21-0.36,0.21-0.39,0.06-0.51c-0.27-0.24-0.48-0.06-1.15,1.03
			c-0.79,1.27-1.12,2.09-0.94,2.27c0.06,0.06,0.18,0.12,0.27,0.12c0.09,0,0.58-0.45,1.09-1.03c1.03-1.12,2.18-2.24,2.33-2.24
			c0.06,0,0.21,0.12,0.36,0.27c0.36,0.36,0.82,0.61,1.69,0.54c0.54-0.03,1.18-0.18,1.57-0.36c0.24-0.12,0.39-0.24,0.39-0.33
			c0-0.27-0.3-0.27-0.97-0.03L277.72,39.75L277.72,39.75z M283.89,39.81c-0.45,0.18-1.39,0.48-2.24,0.82
			c-0.85,0.33-1.6,0.64-1.69,0.7c-0.21,0.15-0.27,0.06-0.42-0.51c-0.15-0.58-0.06-0.94,0.27-1.12c0.27-0.15,0.27-0.33-0.03-0.45
			c-0.06-0.03-0.12-0.03-0.18-0.03c-0.27,0-0.58,0.24-0.76,0.64c-0.15,0.33-0.15,0.45,0.03,1.15l0.18,0.79l-0.24,0.12
			c-0.48,0.27-1.3,0.85-1.51,1.09c-0.27,0.3-0.27,0.82,0,0.97c0.3,0.18,0.91,0.15,1.45-0.06c0.61-0.24,1.06-0.82,1.15-1.48
			l0.06-0.48l1.73-0.7c0.97-0.36,2-0.73,2.45-0.91c0.64-0.24,0.82-0.36,0.82-0.51c0-0.3-0.24-0.3-1.09,0.03L283.89,39.81
			L283.89,39.81z M278.47,43.29c-0.18,0.12-0.45,0.21-0.61,0.21c-0.24,0-0.27-0.03-0.18-0.18c0.12-0.18,1.18-0.97,1.3-0.97
			c0.27,0-0.09,0.61-0.54,0.91L278.47,43.29L278.47,43.29z"/>
		<path class="st1" d="M255.5,45.94h-0.3l-1.31,2.89h0.33l0.34-0.76h1.56l0.34,0.76h0.35L255.5,45.94L255.5,45.94z M255.99,47.79
			h-1.31l0.66-1.47L255.99,47.79L255.99,47.79z M259.49,48.27l-1.81-2.3h-0.3v2.87h0.32v-2.36l1.86,2.36h0.26v-2.87h-0.32
			L259.49,48.27L259.49,48.27z M262.73,48.27l-1.81-2.3h-0.3v2.87h0.32v-2.36l1.86,2.36h0.26v-2.87h-0.32L262.73,48.27L262.73,48.27
			z M263.89,45.96v2.87h0.32v-2.87H263.89z M266.19,48.44l-1.02-2.48h-0.36l1.24,2.89h0.29l1.24-2.89h-0.35L266.19,48.44
			L266.19,48.44z M270.21,45.96h-2.08v2.87h2.1v-0.3h-1.77v-1.01h1.57v-0.3h-1.57v-0.98h1.75L270.21,45.96L270.21,45.96z
			 M273.26,48.84l-0.88-1.17c0.11-0.02,0.22-0.05,0.31-0.1c0.1-0.05,0.18-0.1,0.25-0.17c0.07-0.07,0.12-0.15,0.16-0.25
			c0.04-0.09,0.06-0.2,0.06-0.32c0-0.13-0.02-0.25-0.07-0.35c-0.05-0.11-0.12-0.2-0.21-0.27c-0.09-0.08-0.2-0.13-0.33-0.17
			s-0.27-0.06-0.43-0.06h-1.24v2.87h0.32v-1.12h0.82l0.83,1.12H273.26L273.26,48.84z M272.84,46.84c0,0.09-0.02,0.18-0.06,0.25
			c-0.04,0.07-0.09,0.14-0.15,0.19c-0.07,0.05-0.14,0.09-0.23,0.12c-0.09,0.03-0.19,0.04-0.3,0.04h-0.89v-1.17h0.89
			c0.23,0,0.41,0.05,0.54,0.15C272.77,46.51,272.84,46.65,272.84,46.84L272.84,46.84z M274.11,46.68c0-0.07,0.01-0.13,0.04-0.18
			c0.03-0.06,0.07-0.11,0.12-0.15c0.05-0.04,0.12-0.07,0.19-0.1c0.08-0.02,0.16-0.04,0.25-0.04c0.15,0,0.29,0.02,0.42,0.07
			c0.14,0.05,0.27,0.13,0.4,0.24l0.19-0.25c-0.15-0.12-0.3-0.2-0.46-0.26c-0.16-0.06-0.34-0.09-0.55-0.09
			c-0.14,0-0.26,0.02-0.38,0.06c-0.11,0.04-0.21,0.09-0.3,0.16c-0.09,0.07-0.15,0.15-0.2,0.25c-0.05,0.1-0.07,0.2-0.07,0.32
			c0,0.12,0.02,0.22,0.06,0.31c0.04,0.09,0.1,0.16,0.18,0.23c0.08,0.07,0.18,0.12,0.3,0.17c0.12,0.05,0.27,0.09,0.43,0.12
			c0.15,0.03,0.27,0.07,0.37,0.1c0.1,0.04,0.17,0.08,0.23,0.12c0.06,0.04,0.09,0.09,0.12,0.15c0.02,0.05,0.03,0.11,0.03,0.18
			c0,0.15-0.06,0.27-0.17,0.36c-0.12,0.09-0.27,0.14-0.47,0.14c-0.2,0-0.38-0.03-0.53-0.1c-0.15-0.07-0.31-0.17-0.46-0.31l-0.2,0.24
			c0.17,0.16,0.35,0.27,0.54,0.34c0.19,0.07,0.4,0.11,0.63,0.11c0.14,0,0.27-0.02,0.39-0.06c0.12-0.04,0.22-0.09,0.31-0.16
			c0.09-0.07,0.15-0.16,0.2-0.26c0.05-0.1,0.07-0.21,0.07-0.34c0-0.22-0.08-0.4-0.23-0.52c-0.15-0.13-0.39-0.22-0.71-0.3
			c-0.16-0.03-0.29-0.07-0.39-0.1c-0.1-0.04-0.18-0.08-0.24-0.12c-0.06-0.04-0.1-0.09-0.12-0.15
			C274.12,46.81,274.11,46.75,274.11,46.68L274.11,46.68z M277.79,45.94h-0.3l-1.31,2.89h0.33l0.34-0.76h1.56l0.34,0.76h0.35
			L277.79,45.94L277.79,45.94z M278.29,47.79h-1.31l0.66-1.47L278.29,47.79L278.29,47.79z M282.04,48.84l-0.88-1.17
			c0.11-0.02,0.22-0.05,0.31-0.1c0.1-0.05,0.18-0.1,0.25-0.17c0.07-0.07,0.12-0.15,0.16-0.25c0.04-0.09,0.06-0.2,0.06-0.32
			c0-0.13-0.02-0.25-0.07-0.35c-0.05-0.11-0.12-0.2-0.21-0.27c-0.09-0.08-0.2-0.13-0.33-0.17c-0.13-0.04-0.27-0.06-0.43-0.06h-1.24
			v2.87h0.32v-1.12h0.82l0.83,1.12H282.04L282.04,48.84z M281.62,46.84c0,0.09-0.02,0.18-0.06,0.25c-0.04,0.07-0.09,0.14-0.15,0.19
			c-0.07,0.05-0.14,0.09-0.23,0.12c-0.09,0.03-0.19,0.04-0.3,0.04h-0.89v-1.17h0.89c0.23,0,0.41,0.05,0.54,0.15
			C281.55,46.51,281.62,46.65,281.62,46.84L281.62,46.84z M283.76,47.7l1.19-1.73h-0.38l-0.98,1.44l-0.97-1.44h-0.39l1.19,1.74v1.14
			h0.32L283.76,47.7L283.76,47.7z"/>
	</g>
</g>
</svg>
